<svg xmlns="http://www.w3.org/2000/svg" viewBox="0 0 605 541" width="605" height="541" role="img" aria-label="AI / ML Stack" font-family="JetBrains Mono,ui-monospace,SFMono-Regular,Consolas,monospace"><text x="302.5" y="25" text-anchor="middle" font-size="15" font-weight="700" fill="#22D3EE">AI / ML Stack</text><g transform="translate(263.9,289.0)"><polygon points="0.0,-212.0 165.7,-132.2 206.7,47.2 92.0,191.0 -92.0,191.0 -206.7,47.2 -165.7,-132.2" fill="none" stroke="#24344E" stroke-width="1" opacity="0.85"/><polygon points="0.0,-159.0 124.3,-99.1 155.0,35.4 69.0,143.3 -69.0,143.3 -155.0,35.4 -124.3,-99.1" fill="none" stroke="#24344E" stroke-width="1" opacity="0.72"/><polygon points="0.0,-106.0 82.9,-66.1 103.3,23.6 46.0,95.5 -46.0,95.5 -103.3,23.6 -82.9,-66.1" fill="none" stroke="#24344E" stroke-width="1" opacity="0.60"/><polygon points="0.0,-53.0 41.4,-33.0 51.7,11.8 23.0,47.8 -23.0,47.8 -51.7,11.8 -41.4,-33.0" fill="none" stroke="#24344E" stroke-width="1" opacity="0.47"/><line x1="0" y1="0" x2="0.0" y2="-212.0" stroke="#24344E" stroke-width="1"/><line x1="0" y1="0" x2="165.7" y2="-132.2" stroke="#24344E" stroke-width="1"/><line x1="0" y1="0" x2="206.7" y2="47.2" stroke="#24344E" stroke-width="1"/><line x1="0" y1="0" x2="92.0" y2="191.0" stroke="#24344E" stroke-width="1"/><line x1="0" y1="0" x2="-92.0" y2="191.0" stroke="#24344E" stroke-width="1"/><line x1="0" y1="0" x2="-206.7" y2="47.2" stroke="#24344E" stroke-width="1"/><line x1="0" y1="0" x2="-165.7" y2="-132.2" stroke="#24344E" stroke-width="1"/><g><animateTransform attributeName="transform" type="scale" values="0.04;1" dur="1.1s" calcMode="spline" keyTimes="0;1" keySplines="0.22 1 0.36 1" fill="freeze"/><polygon points="0.0,-195.0 149.2,-119.0 181.9,41.5 79.1,164.3 -78.2,162.4 -169.5,38.7 -132.6,-105.7" fill="#22D3EE" fill-opacity="0.22" stroke="#22D3EE" stroke-width="2.5" stroke-linejoin="round"/><circle cx="0.0" cy="-195.0" r="3.6" fill="#7DD3FC" stroke="#22D3EE" stroke-width="1.2"/><circle cx="149.2" cy="-119.0" r="3.6" fill="#7DD3FC" stroke="#22D3EE" stroke-width="1.2"/><circle cx="181.9" cy="41.5" r="3.6" fill="#7DD3FC" stroke="#22D3EE" stroke-width="1.2"/><circle cx="79.1" cy="164.3" r="3.6" fill="#7DD3FC" stroke="#22D3EE" stroke-width="1.2"/><circle cx="-78.2" cy="162.4" r="3.6" fill="#7DD3FC" stroke="#22D3EE" stroke-width="1.2"/><circle cx="-169.5" cy="38.7" r="3.6" fill="#7DD3FC" stroke="#22D3EE" stroke-width="1.2"/><circle cx="-132.6" cy="-105.7" r="3.6" fill="#7DD3FC" stroke="#22D3EE" stroke-width="1.2"/></g><text x="0.0" y="-237.0" text-anchor="middle" font-size="13" font-weight="600" fill="#DCE8F8">Machine Learning</text><text x="0.0" y="-222.0" text-anchor="middle" font-size="11" fill="#7E93B0">92</text><text x="181.4" y="-149.6" text-anchor="start" font-size="13" font-weight="600" fill="#DCE8F8">LLMs / GenAI</text><text x="181.4" y="-134.6" text-anchor="start" font-size="11" fill="#7E93B0">90</text><text x="226.2" y="55.6" text-anchor="start" font-size="13" font-weight="600" fill="#DCE8F8">Deep Learning</text><text x="226.2" y="70.6" text-anchor="start" font-size="11" fill="#7E93B0">88</text><text x="100.7" y="223.0" text-anchor="start" font-size="13" font-weight="600" fill="#DCE8F8">Transformers</text><text x="100.7" y="238.0" text-anchor="start" font-size="11" fill="#7E93B0">86</text><text x="-100.7" y="223.0" text-anchor="end" font-size="13" font-weight="600" fill="#DCE8F8">AI Agents</text><text x="-100.7" y="238.0" text-anchor="end" font-size="11" fill="#7E93B0">85</text><text x="-226.2" y="55.6" text-anchor="end" font-size="13" font-weight="600" fill="#DCE8F8">RAG</text><text x="-226.2" y="70.6" text-anchor="end" font-size="11" fill="#7E93B0">82</text><text x="-181.4" y="-149.6" text-anchor="end" font-size="13" font-weight="600" fill="#DCE8F8">LangChain</text><text x="-181.4" y="-134.6" text-anchor="end" font-size="11" fill="#7E93B0">80</text></g></svg>